<svg width="200" height="200" viewBox="50 0 200 150" class="css-1j8o68f"><defs id="SvgjsDefs2473"></defs><g id="SvgjsG2474" featurekey="e7LhAk-0" transform="matrix(1.5,0,0,1.5,75.00000429153442,-0.9345000386238098)" fill="#2b2e4a"><path xmlns="http://www.w3.org/2000/svg" d=" M 49.378 0.623 C 36.282 0.623 23.722 5.825 14.462 15.085 C 5.202 24.346 -0.001 36.905 0 50.001 C 0 63.096 5.203 75.656 14.463 84.916 C 23.723 94.176 36.282 99.378 49.378 99.377 C 70.458 99.377 88.45 86.166 95.533 67.572 L 100 67.572 L 100 32.429 L 95.532 32.429 C 88.449 13.836 70.458 0.624 49.378 0.623 L 49.378 0.623 Z  M 49.378 7.445 C 60.664 7.445 71.489 11.929 79.47 19.909 C 87.451 27.89 91.935 38.715 91.935 50.001 C 91.935 61.288 87.451 72.112 79.47 80.093 C 71.489 88.074 60.664 92.558 49.378 92.558 C 38.091 92.558 27.267 88.074 19.286 80.093 C 11.305 72.112 6.821 61.288 6.821 50.001 C 6.821 38.715 11.305 27.89 19.286 19.909 C 27.267 11.929 38.091 7.445 49.378 7.445 Z  M 46.955 11.897 C 46.426 11.897 45.914 12.107 45.538 12.486 C 45.16 12.864 44.95 13.371 44.95 13.901 C 44.95 14.43 45.16 14.943 45.538 15.318 C 45.917 15.696 46.424 15.906 46.955 15.906 C 47.483 15.906 47.996 15.696 48.371 15.318 C 48.75 14.939 48.96 14.433 48.96 13.901 C 48.96 13.373 48.75 12.861 48.371 12.486 C 47.993 12.107 47.485 11.897 46.955 11.897 Z  M 39.992 13.005 L 39.993 13.007 C 39.819 13.008 39.651 13.007 39.483 13.08 C 29.656 15.713 21.737 21.96 16.801 30.002 C 16.44 30.584 16.422 31.314 16.737 31.914 C 17.061 32.516 17.684 32.897 18.367 32.915 C 19.051 32.915 19.692 32.585 20.048 32.001 C 24.493 24.758 31.598 19.144 40.462 16.769 C 41.397 16.529 42.008 15.632 41.885 14.675 C 41.765 13.719 40.947 13.003 39.982 13.008 L 39.992 13.005 Z  M 57.974 28.297 L 51.711 29.039 C 50.275 31.538 47.903 33.362 45.12 34.111 C 42.335 34.857 39.369 34.459 36.874 33.014 L 31.08 35.503 L 21.864 49.575 L 28.572 56.269 L 34.573 48.538 L 37.856 57.495 C 43.416 52.471 48.822 45.972 56.088 42.031 C 56.151 41.967 56.208 41.967 56.268 41.934 C 57.727 41.155 59.262 40.477 60.887 39.937 C 60.887 39.937 60.887 39.938 60.887 39.938 C 61.018 39.874 61.157 39.856 61.289 39.811 C 61.469 39.748 61.642 39.698 61.822 39.643 C 63.335 39.199 64.928 38.878 66.61 38.696 C 66.674 38.696 66.706 38.696 66.748 38.696 C 66.685 38.696 66.685 38.696 66.652 38.696 C 66.724 38.696 66.802 38.696 66.874 38.696 C 66.81 38.696 66.792 38.696 66.747 38.696 C 66.829 38.696 66.904 38.696 66.981 38.696 C 67.275 38.696 67.575 38.632 67.876 38.623 C 67.996 38.623 68.116 38.623 68.23 38.623 C 68.584 38.623 68.938 38.559 69.298 38.559 C 69.362 38.559 69.419 38.559 69.478 38.559 C 69.887 38.559 70.3 38.561 70.717 38.559 C 70.799 38.559 70.874 38.559 70.946 38.559 C 71.378 38.559 71.808 38.623 72.248 38.632 L 72.987 35.886 L 57.974 28.297 Z  M 68.202 38.568 C 68.138 38.568 68.075 38.568 68.01 38.568 C 68.074 38.568 68.136 38.568 68.202 38.568 Z  M 72.254 38.632 L 70.53 45.036 L 70.53 45.036 L 67.714 43.888 L 61.468 41.342 L 65.75 65.959 L 43.173 72.009 L 37.858 57.513 C 30.604 64.067 23.081 68.092 10.8 60.567 C 16.608 81.795 38.473 94.344 59.732 88.652 C 79.636 83.314 92.229 63.729 88.824 43.405 C 82.499 40.458 77.044 39.003 72.254 38.632 L 72.254 38.632 Z  M 58.978 40.657 C 58.84 40.721 58.702 40.777 58.564 40.837 C 58.703 40.774 58.841 40.717 58.978 40.657 Z  M 57.152 41.488 C 57.07 41.551 56.996 41.569 56.918 41.608 C 57 41.544 57.075 41.526 57.152 41.488 Z  M 55.397 42.426 L 55.295 42.49 L 55.397 42.426 Z " fill-rule="evenodd" fill="#2b2e4a"></path></g></svg>