<svg width="300" height="216.2231071811266" viewBox="0 0 300 216.2231071811266" class="css-1j8o68f"><defs id="SvgjsDefs2658"></defs><g id="SvgjsG2659" featurekey="e7LhAk-0" transform="matrix(1.5,0,0,1.5,75.00000429153442,-0.9345000386238098)" fill="#0159fe"><path xmlns="http://www.w3.org/2000/svg" d=" M 49.378 0.623 C 36.282 0.623 23.722 5.825 14.462 15.085 C 5.202 24.346 -0.001 36.905 0 50.001 C 0 63.096 5.203 75.656 14.463 84.916 C 23.723 94.176 36.282 99.378 49.378 99.377 C 70.458 99.377 88.45 86.166 95.533 67.572 L 100 67.572 L 100 32.429 L 95.532 32.429 C 88.449 13.836 70.458 0.624 49.378 0.623 L 49.378 0.623 Z  M 49.378 7.445 C 60.664 7.445 71.489 11.929 79.47 19.909 C 87.451 27.89 91.935 38.715 91.935 50.001 C 91.935 61.288 87.451 72.112 79.47 80.093 C 71.489 88.074 60.664 92.558 49.378 92.558 C 38.091 92.558 27.267 88.074 19.286 80.093 C 11.305 72.112 6.821 61.288 6.821 50.001 C 6.821 38.715 11.305 27.89 19.286 19.909 C 27.267 11.929 38.091 7.445 49.378 7.445 Z  M 46.955 11.897 C 46.426 11.897 45.914 12.107 45.538 12.486 C 45.16 12.864 44.95 13.371 44.95 13.901 C 44.95 14.43 45.16 14.943 45.538 15.318 C 45.917 15.696 46.424 15.906 46.955 15.906 C 47.483 15.906 47.996 15.696 48.371 15.318 C 48.75 14.939 48.96 14.433 48.96 13.901 C 48.96 13.373 48.75 12.861 48.371 12.486 C 47.993 12.107 47.485 11.897 46.955 11.897 Z  M 39.992 13.005 L 39.993 13.007 C 39.819 13.008 39.651 13.007 39.483 13.08 C 29.656 15.713 21.737 21.96 16.801 30.002 C 16.44 30.584 16.422 31.314 16.737 31.914 C 17.061 32.516 17.684 32.897 18.367 32.915 C 19.051 32.915 19.692 32.585 20.048 32.001 C 24.493 24.758 31.598 19.144 40.462 16.769 C 41.397 16.529 42.008 15.632 41.885 14.675 C 41.765 13.719 40.947 13.003 39.982 13.008 L 39.992 13.005 Z  M 57.974 28.297 L 51.711 29.039 C 50.275 31.538 47.903 33.362 45.12 34.111 C 42.335 34.857 39.369 34.459 36.874 33.014 L 31.08 35.503 L 21.864 49.575 L 28.572 56.269 L 34.573 48.538 L 37.856 57.495 C 43.416 52.471 48.822 45.972 56.088 42.031 C 56.151 41.967 56.208 41.967 56.268 41.934 C 57.727 41.155 59.262 40.477 60.887 39.937 C 60.887 39.937 60.887 39.938 60.887 39.938 C 61.018 39.874 61.157 39.856 61.289 39.811 C 61.469 39.748 61.642 39.698 61.822 39.643 C 63.335 39.199 64.928 38.878 66.61 38.696 C 66.674 38.696 66.706 38.696 66.748 38.696 C 66.685 38.696 66.685 38.696 66.652 38.696 C 66.724 38.696 66.802 38.696 66.874 38.696 C 66.81 38.696 66.792 38.696 66.747 38.696 C 66.829 38.696 66.904 38.696 66.981 38.696 C 67.275 38.696 67.575 38.632 67.876 38.623 C 67.996 38.623 68.116 38.623 68.23 38.623 C 68.584 38.623 68.938 38.559 69.298 38.559 C 69.362 38.559 69.419 38.559 69.478 38.559 C 69.887 38.559 70.3 38.561 70.717 38.559 C 70.799 38.559 70.874 38.559 70.946 38.559 C 71.378 38.559 71.808 38.623 72.248 38.632 L 72.987 35.886 L 57.974 28.297 Z  M 68.202 38.568 C 68.138 38.568 68.075 38.568 68.01 38.568 C 68.074 38.568 68.136 38.568 68.202 38.568 Z  M 72.254 38.632 L 70.53 45.036 L 70.53 45.036 L 67.714 43.888 L 61.468 41.342 L 65.75 65.959 L 43.173 72.009 L 37.858 57.513 C 30.604 64.067 23.081 68.092 10.8 60.567 C 16.608 81.795 38.473 94.344 59.732 88.652 C 79.636 83.314 92.229 63.729 88.824 43.405 C 82.499 40.458 77.044 39.003 72.254 38.632 L 72.254 38.632 Z  M 58.978 40.657 C 58.84 40.721 58.702 40.777 58.564 40.837 C 58.703 40.774 58.841 40.717 58.978 40.657 Z  M 57.152 41.488 C 57.07 41.551 56.996 41.569 56.918 41.608 C 57 41.544 57.075 41.526 57.152 41.488 Z  M 55.397 42.426 L 55.295 42.49 L 55.397 42.426 Z " fill-rule="evenodd" fill="#0159fe"></path></g><g id="SvgjsG2660" featurekey="Qg0WB5-0" transform="matrix(2.682041624519902,0,0,2.682041624519902,-3.379372421317134,161.96540634483023)" fill="#2b2e4a"><path d="M1.26 5.58 q0 -0.18 0.12 -0.31 t0.33 -0.13 l2.96 0 q0.17 0 0.31 0.12 t0.15 0.32 l0 10.88 l5.5 0 q0.18 0 0.31 0.12 t0.13 0.33 l0 2.63 q0 0.17 -0.115 0.31 t-0.325 0.15 l-8.93 0 q-0.44 0 -0.44 -0.44 l0 -13.98 z M26.060000000000002 19.26 q0 0.17 -0.06 0.325 t-0.2 0.245 q-0.11 0.11 -0.26 0.14 t-0.26 0.03 l-1.97 0 q-0.21 0 -0.34 -0.055 t-0.21 -0.155 t-0.135 -0.245 t-0.115 -0.315 l-0.29 -0.75 q-0.27 0.27 -0.59 0.575 t-0.705 0.565 t-0.835 0.435 t-0.96 0.175 q-0.91 0 -1.745 -0.23 t-1.56 -0.655 t-1.315 -1.02 t-1.015 -1.325 t-0.655 -1.575 t-0.23 -1.765 q0 -1.39 0.51 -2.585 t1.39 -2.08 t2.07 -1.39 t2.55 -0.505 q0.62 0 1.14 0.185 t0.945 0.485 t0.77 0.68 t0.615 0.77 l0.39 -1.21 q0.1 -0.25 0.165 -0.405 t0.14 -0.23 t0.185 -0.1 t0.31 -0.025 l1.49 0 q0.11 0 0.26 0.03 t0.26 0.14 q0.14 0.11 0.2 0.25 t0.06 0.32 l0 11.27 z M16.21 13.66 q0 0.66 0.205 1.235 t0.585 0.995 t0.915 0.665 t1.185 0.245 q0.67 0 1.245 -0.245 t1 -0.665 t0.665 -0.995 t0.24 -1.235 q0 -0.64 -0.24 -1.22 t-0.665 -1.02 t-1 -0.695 t-1.245 -0.255 q-0.65 0 -1.185 0.255 t-0.915 0.695 t-0.585 1.02 t-0.205 1.22 z M40.25 19.83 q-0.13 0.11 -0.275 0.14 t-0.275 0.03 l-1.51 0 q-0.18 0 -0.31 -0.065 t-0.22 -0.175 t-0.15 -0.25 t-0.1 -0.29 l-0.31 -1.28 q-0.15 0.31 -0.435 0.705 t-0.725 0.74 t-1.05 0.58 t-1.4 0.235 q-1.14 0 -2.07 -0.44 t-1.585 -1.2 t-1.015 -1.775 t-0.36 -2.165 l0 -6.55 q0 -0.38 0.165 -0.575 t0.525 -0.195 l2.31 0 q0.43 0 0.59 0.145 t0.16 0.565 l0 6.51 q0 0.43 0.195 0.815 t0.515 0.68 t0.725 0.465 t0.825 0.17 q0.36 0 0.745 -0.17 t0.71 -0.455 t0.535 -0.67 t0.21 -0.815 l0 -6.5 q0 -0.17 0.065 -0.34 t0.195 -0.26 q0.13 -0.08 0.245 -0.11 t0.265 -0.03 l2.26 0 q0.43 0 0.62 0.21 t0.19 0.56 l0 11.19 q0 0.19 -0.085 0.35 t-0.235 0.25 z M43.17 7.470000000000001 q0.13 -0.11 0.275 -0.14 t0.275 -0.03 l1.51 0 q0.18 0 0.31 0.065 t0.22 0.175 t0.145 0.25 t0.105 0.29 l0.31 1.28 q0.15 -0.31 0.435 -0.705 t0.725 -0.74 t1.045 -0.58 t1.405 -0.235 q1.14 0 2.07 0.44 t1.585 1.2 t1.015 1.775 t0.36 2.165 l0 6.55 q0 0.38 -0.165 0.575 t-0.525 0.195 l-2.31 0 q-0.43 0 -0.59 -0.145 t-0.16 -0.565 l0 -6.51 q0 -0.43 -0.195 -0.815 t-0.515 -0.68 t-0.725 -0.465 t-0.825 -0.17 q-0.36 0 -0.735 0.16 t-0.69 0.445 t-0.53 0.67 t-0.245 0.835 l0 6.5 q0 0.17 -0.065 0.34 t-0.195 0.26 q-0.13 0.08 -0.245 0.11 t-0.265 0.03 l-2.26 0 q-0.43 0 -0.62 -0.21 t-0.19 -0.56 l0 -11.19 q0 -0.19 0.085 -0.35 t0.235 -0.25 z M66.11 18.45 q-0.27 0.27 -0.595 0.58 t-0.715 0.58 t-0.84 0.445 t-0.97 0.175 q-1.36 0 -2.505 -0.51 t-1.97 -1.395 t-1.29 -2.085 t-0.465 -2.58 q0 -1.39 0.465 -2.585 t1.29 -2.08 t1.97 -1.39 t2.505 -0.505 q0.55 0 1.005 0.16 t0.83 0.41 t0.69 0.565 t0.595 0.615 l0 -4.57 q0 -0.32 0.195 -0.54 t0.585 -0.22 l2.25 0 q0.13 0 0.275 0.055 t0.265 0.155 t0.195 0.24 t0.075 0.31 l0 14.95 q0 0.77 -0.81 0.77 l-1.96 0 q-0.2 0 -0.31 -0.05 t-0.185 -0.145 t-0.135 -0.24 t-0.15 -0.335 z M60.36 13.66 q0 0.66 0.205 1.235 t0.585 0.995 t0.915 0.665 t1.185 0.245 q0.64 0 1.205 -0.23 t0.985 -0.635 t0.675 -0.955 t0.285 -1.18 l0 -0.14 q0 -0.64 -0.24 -1.22 t-0.665 -1.02 t-1 -0.695 t-1.245 -0.255 q-0.65 0 -1.185 0.255 t-0.915 0.695 t-0.585 1.02 t-0.205 1.22 z M72.61 8.04 q0 -0.17 0.075 -0.325 t0.185 -0.245 q0.26 -0.17 0.54 -0.17 l1.51 0 q0.19 0 0.3 0.07 t0.185 0.18 t0.13 0.25 t0.135 0.28 q0.02 0.04 0.08 0.195 t0.13 0.34 t0.135 0.35 t0.085 0.215 q0.3 -0.33 0.575 -0.695 t0.585 -0.675 t0.69 -0.51 t0.9 -0.2 q0.54 0 0.965 0.08 t0.805 0.235 t0.755 0.395 t0.815 0.56 q0.69 0.37 0.26 1.1 l-0.91 1.55 q-0.2 0.3 -0.49 0.37 t-0.63 -0.09 q-0.43 -0.42 -0.875 -0.625 t-1.015 -0.205 q-0.39 0 -0.685 0.11 t-0.535 0.31 t-0.45 0.48 t-0.42 0.62 l0 7.24 q0 0.38 -0.185 0.575 t-0.615 0.195 l-2.25 0 q-0.78 0 -0.78 -0.77 l0 -11.19 z M84.11 8.08 q0 -0.32 0.18 -0.55 t0.56 -0.23 l2.29 0 q0.12 0 0.26 0.055 t0.26 0.16 t0.205 0.245 t0.085 0.32 l0 11.15 q0 0.38 -0.21 0.575 t-0.6 0.195 l-2.29 0 q-0.74 0 -0.74 -0.77 l0 -11.15 z M84.11 3.0199999999999996 q0 -0.42 0.18 -0.595 t0.56 -0.175 l2.32 0 q0.35 0 0.565 0.175 t0.215 0.595 l0 1.95 q0 0.12 -0.055 0.26 t-0.155 0.27 t-0.245 0.215 t-0.325 0.085 l-2.32 0 q-0.74 0 -0.74 -0.83 l0 -1.95 z M89.5 8.29 q-0.2 -0.41 -0.075 -0.7 t0.595 -0.29 l2.56 0 q0.26 0 0.455 0.14 t0.275 0.4 q0.17 0.53 0.375 1.19 t0.43 1.355 t0.445 1.38 t0.405 1.26 t0.33 1 t0.215 0.605 l2.12 -6.79 q0.13 -0.32 0.295 -0.43 t0.465 -0.11 l2.63 0 q0.29 0 0.44 0.07 t0.2 0.19 t0.02 0.275 t-0.1 0.325 l-4.76 11.41 q-0.11 0.18 -0.26 0.305 t-0.45 0.125 l-1.19 0 q-0.4 0 -0.565 -0.115 t-0.245 -0.315 z M103.11000000000001 8.04 q0 -0.17 0.075 -0.325 t0.185 -0.245 q0.26 -0.17 0.54 -0.17 l1.51 0 q0.19 0 0.3 0.07 t0.185 0.18 t0.13 0.25 t0.135 0.28 q0.02 0.04 0.08 0.195 t0.13 0.34 t0.135 0.35 t0.085 0.215 q0.3 -0.33 0.575 -0.695 t0.585 -0.675 t0.69 -0.51 t0.9 -0.2 q0.54 0 0.965 0.08 t0.805 0.235 t0.755 0.395 t0.815 0.56 q0.69 0.37 0.26 1.1 l-0.91 1.55 q-0.2 0.3 -0.49 0.37 t-0.63 -0.09 q-0.43 -0.42 -0.875 -0.625 t-1.015 -0.205 q-0.39 0 -0.685 0.11 t-0.535 0.31 t-0.45 0.48 t-0.42 0.62 l0 7.24 q0 0.38 -0.185 0.575 t-0.615 0.195 l-2.25 0 q-0.78 0 -0.78 -0.77 l0 -11.19 z"></path></g></svg>